<mxfile host="app.diagrams.net" modified="2024-02-23T08:39:41.562Z" agent="Mozilla/5.0 (Windows NT 10.0; Win64; x64) AppleWebKit/537.36 (KHTML, like Gecko) Chrome/119.0.0.0 Safari/537.36" version="23.1.6" etag="wp7y_4vth1tyqCgV5o8_" type="github">
  <diagram name="第 1 页" id="KEMMI0yfq3c-ek_gplTg">
    <mxGraphModel>
      <root>
        <mxCell id="0" />
        <mxCell id="1" parent="0" />
      </root>
    </mxGraphModel>
  </diagram>
</mxfile>
